<svg version="1.1" xmlns="http://www.w3.org/2000/svg" xmlns:xlink="http://www.w3.org/1999/xlink" width="400" height="400" viewBox="0 0 400 400"><defs/><g><g><path fill="rgb(0,0,0)" stroke="none" paint-order="stroke fill markers" d=" M 47.5 50 C 47.5 48.6192881255 48.6192881255 47.5 50 47.5 C 51.3807118745 47.5 52.5 48.6192881255 52.5 50 C 52.5 51.3807118745 51.3807118745 52.5 50 52.5 C 48.6192881255 52.5 47.5 51.3807118745 47.5 50 Z" fill-opacity="1"/><path fill="rgb(0,0,0)" stroke="none" paint-order="stroke fill markers" d=" M 47.5 100 C 47.5 98.6192881255 48.6192881255 97.5 50 97.5 C 51.3807118745 97.5 52.5 98.6192881255 52.5 100 C 52.5 101.3807118745 51.3807118745 102.5 50 102.5 C 48.6192881255 102.5 47.5 101.3807118745 47.5 100 Z" fill-opacity="1"/><path fill="rgb(0,0,0)" stroke="none" paint-order="stroke fill markers" d=" M 47.5 150 C 47.5 148.6192881255 48.6192881255 147.5 50 147.5 C 51.3807118745 147.5 52.5 148.6192881255 52.5 150 C 52.5 151.3807118745 51.3807118745 152.5 50 152.5 C 48.6192881255 152.5 47.5 151.3807118745 47.5 150 Z" fill-opacity="1"/><path fill="rgb(0,0,0)" stroke="none" paint-order="stroke fill markers" d=" M 47.5 200 C 47.5 198.6192881255 48.6192881255 197.5 50 197.5 C 51.3807118745 197.5 52.5 198.6192881255 52.5 200 C 52.5 201.3807118745 51.3807118745 202.5 50 202.5 C 48.6192881255 202.5 47.5 201.3807118745 47.5 200 Z" fill-opacity="1"/><path fill="rgb(0,0,0)" stroke="none" paint-order="stroke fill markers" d=" M 47.5 250 C 47.5 248.6192881255 48.6192881255 247.5 50 247.5 C 51.3807118745 247.5 52.5 248.6192881255 52.5 250 C 52.5 251.3807118745 51.3807118745 252.5 50 252.5 C 48.6192881255 252.5 47.5 251.3807118745 47.5 250 Z" fill-opacity="1"/><path fill="rgb(0,0,0)" stroke="none" paint-order="stroke fill markers" d=" M 47.5 300 C 47.5 298.6192881255 48.6192881255 297.5 50 297.5 C 51.3807118745 297.5 52.5 298.6192881255 52.5 300 C 52.5 301.3807118745 51.3807118745 302.5 50 302.5 C 48.6192881255 302.5 47.5 301.3807118745 47.5 300 Z" fill-opacity="1"/><path fill="rgb(0,0,0)" stroke="none" paint-order="stroke fill markers" d=" M 47.5 350 C 47.5 348.6192881255 48.6192881255 347.5 50 347.5 C 51.3807118745 347.5 52.5 348.6192881255 52.5 350 C 52.5 351.3807118745 51.3807118745 352.5 50 352.5 C 48.6192881255 352.5 47.5 351.3807118745 47.5 350 Z" fill-opacity="1"/><path fill="rgb(0,0,0)" stroke="none" paint-order="stroke fill markers" d=" M 97.5 50 C 97.5 48.6192881255 98.6192881255 47.5 100 47.5 C 101.3807118745 47.5 102.5 48.6192881255 102.5 50 C 102.5 51.3807118745 101.3807118745 52.5 100 52.5 C 98.6192881255 52.5 97.5 51.3807118745 97.5 50 Z" fill-opacity="1"/><path fill="rgb(0,0,0)" stroke="none" paint-order="stroke fill markers" d=" M 97.5 100 C 97.5 98.6192881255 98.6192881255 97.5 100 97.5 C 101.3807118745 97.5 102.5 98.6192881255 102.5 100 C 102.5 101.3807118745 101.3807118745 102.5 100 102.5 C 98.6192881255 102.5 97.5 101.3807118745 97.5 100 Z" fill-opacity="1"/><path fill="rgb(0,0,0)" stroke="none" paint-order="stroke fill markers" d=" M 97.5 150 C 97.5 148.6192881255 98.6192881255 147.5 100 147.5 C 101.3807118745 147.5 102.5 148.6192881255 102.5 150 C 102.5 151.3807118745 101.3807118745 152.5 100 152.5 C 98.6192881255 152.5 97.5 151.3807118745 97.5 150 Z" fill-opacity="1"/><path fill="rgb(0,0,0)" stroke="none" paint-order="stroke fill markers" d=" M 97.5 200 C 97.5 198.6192881255 98.6192881255 197.5 100 197.5 C 101.3807118745 197.5 102.5 198.6192881255 102.5 200 C 102.5 201.3807118745 101.3807118745 202.5 100 202.5 C 98.6192881255 202.5 97.5 201.3807118745 97.5 200 Z" fill-opacity="1"/><path fill="rgb(0,0,0)" stroke="none" paint-order="stroke fill markers" d=" M 97.5 250 C 97.5 248.6192881255 98.6192881255 247.5 100 247.5 C 101.3807118745 247.5 102.5 248.6192881255 102.5 250 C 102.5 251.3807118745 101.3807118745 252.5 100 252.5 C 98.6192881255 252.5 97.5 251.3807118745 97.5 250 Z" fill-opacity="1"/><path fill="rgb(0,0,0)" stroke="none" paint-order="stroke fill markers" d=" M 97.5 300 C 97.5 298.6192881255 98.6192881255 297.5 100 297.5 C 101.3807118745 297.5 102.5 298.6192881255 102.5 300 C 102.5 301.3807118745 101.3807118745 302.5 100 302.5 C 98.6192881255 302.5 97.5 301.3807118745 97.5 300 Z" fill-opacity="1"/><path fill="rgb(0,0,0)" stroke="none" paint-order="stroke fill markers" d=" M 97.5 350 C 97.5 348.6192881255 98.6192881255 347.5 100 347.5 C 101.3807118745 347.5 102.5 348.6192881255 102.5 350 C 102.5 351.3807118745 101.3807118745 352.5 100 352.5 C 98.6192881255 352.5 97.5 351.3807118745 97.5 350 Z" fill-opacity="1"/><path fill="rgb(0,0,0)" stroke="none" paint-order="stroke fill markers" d=" M 147.5 50 C 147.5 48.6192881255 148.6192881255 47.5 150 47.5 C 151.3807118745 47.5 152.5 48.6192881255 152.5 50 C 152.5 51.3807118745 151.3807118745 52.5 150 52.5 C 148.6192881255 52.5 147.5 51.3807118745 147.5 50 Z" fill-opacity="1"/><path fill="rgb(0,0,0)" stroke="none" paint-order="stroke fill markers" d=" M 147.5 100 C 147.5 98.6192881255 148.6192881255 97.5 150 97.5 C 151.3807118745 97.5 152.5 98.6192881255 152.5 100 C 152.5 101.3807118745 151.3807118745 102.5 150 102.5 C 148.6192881255 102.5 147.5 101.3807118745 147.5 100 Z" fill-opacity="1"/><path fill="rgb(0,0,0)" stroke="none" paint-order="stroke fill markers" d=" M 147.5 150 C 147.5 148.6192881255 148.6192881255 147.5 150 147.5 C 151.3807118745 147.5 152.5 148.6192881255 152.5 150 C 152.5 151.3807118745 151.3807118745 152.5 150 152.5 C 148.6192881255 152.5 147.5 151.3807118745 147.5 150 Z" fill-opacity="1"/><path fill="rgb(0,0,0)" stroke="none" paint-order="stroke fill markers" d=" M 147.5 200 C 147.5 198.6192881255 148.6192881255 197.5 150 197.5 C 151.3807118745 197.5 152.5 198.6192881255 152.5 200 C 152.5 201.3807118745 151.3807118745 202.5 150 202.5 C 148.6192881255 202.5 147.5 201.3807118745 147.5 200 Z" fill-opacity="1"/><path fill="rgb(0,0,0)" stroke="none" paint-order="stroke fill markers" d=" M 147.5 250 C 147.5 248.6192881255 148.6192881255 247.5 150 247.5 C 151.3807118745 247.5 152.5 248.6192881255 152.5 250 C 152.5 251.3807118745 151.3807118745 252.5 150 252.5 C 148.6192881255 252.5 147.5 251.3807118745 147.5 250 Z" fill-opacity="1"/><path fill="rgb(0,0,0)" stroke="none" paint-order="stroke fill markers" d=" M 147.5 300 C 147.5 298.6192881255 148.6192881255 297.5 150 297.5 C 151.3807118745 297.5 152.5 298.6192881255 152.5 300 C 152.5 301.3807118745 151.3807118745 302.5 150 302.5 C 148.6192881255 302.5 147.5 301.3807118745 147.5 300 Z" fill-opacity="1"/><path fill="rgb(0,0,0)" stroke="none" paint-order="stroke fill markers" d=" M 147.5 350 C 147.5 348.6192881255 148.6192881255 347.5 150 347.5 C 151.3807118745 347.5 152.5 348.6192881255 152.5 350 C 152.5 351.3807118745 151.3807118745 352.5 150 352.5 C 148.6192881255 352.5 147.5 351.3807118745 147.5 350 Z" fill-opacity="1"/><path fill="rgb(0,0,0)" stroke="none" paint-order="stroke fill markers" d=" M 197.5 50 C 197.5 48.6192881255 198.6192881255 47.5 200 47.5 C 201.3807118745 47.5 202.5 48.6192881255 202.5 50 C 202.5 51.3807118745 201.3807118745 52.5 200 52.5 C 198.6192881255 52.5 197.5 51.3807118745 197.5 50 Z" fill-opacity="1"/><path fill="rgb(0,0,0)" stroke="none" paint-order="stroke fill markers" d=" M 197.5 100 C 197.5 98.6192881255 198.6192881255 97.5 200 97.5 C 201.3807118745 97.5 202.5 98.6192881255 202.5 100 C 202.5 101.3807118745 201.3807118745 102.5 200 102.5 C 198.6192881255 102.5 197.5 101.3807118745 197.5 100 Z" fill-opacity="1"/><path fill="rgb(0,0,0)" stroke="none" paint-order="stroke fill markers" d=" M 197.5 150 C 197.5 148.6192881255 198.6192881255 147.5 200 147.5 C 201.3807118745 147.5 202.5 148.6192881255 202.5 150 C 202.5 151.3807118745 201.3807118745 152.5 200 152.5 C 198.6192881255 152.5 197.5 151.3807118745 197.5 150 Z" fill-opacity="1"/><path fill="rgb(0,0,0)" stroke="none" paint-order="stroke fill markers" d=" M 197.5 200 C 197.5 198.6192881255 198.6192881255 197.5 200 197.5 C 201.3807118745 197.5 202.5 198.6192881255 202.5 200 C 202.5 201.3807118745 201.3807118745 202.5 200 202.5 C 198.6192881255 202.5 197.5 201.3807118745 197.5 200 Z" fill-opacity="1"/><path fill="rgb(0,0,0)" stroke="none" paint-order="stroke fill markers" d=" M 197.5 250 C 197.5 248.6192881255 198.6192881255 247.5 200 247.5 C 201.3807118745 247.5 202.5 248.6192881255 202.5 250 C 202.5 251.3807118745 201.3807118745 252.5 200 252.5 C 198.6192881255 252.5 197.5 251.3807118745 197.5 250 Z" fill-opacity="1"/><path fill="rgb(0,0,0)" stroke="none" paint-order="stroke fill markers" d=" M 197.5 300 C 197.5 298.6192881255 198.6192881255 297.5 200 297.5 C 201.3807118745 297.5 202.5 298.6192881255 202.5 300 C 202.5 301.3807118745 201.3807118745 302.5 200 302.5 C 198.6192881255 302.5 197.5 301.3807118745 197.5 300 Z" fill-opacity="1"/><path fill="rgb(0,0,0)" stroke="none" paint-order="stroke fill markers" d=" M 197.5 350 C 197.5 348.6192881255 198.6192881255 347.5 200 347.5 C 201.3807118745 347.5 202.5 348.6192881255 202.5 350 C 202.5 351.3807118745 201.3807118745 352.5 200 352.5 C 198.6192881255 352.5 197.5 351.3807118745 197.5 350 Z" fill-opacity="1"/><path fill="rgb(0,0,0)" stroke="none" paint-order="stroke fill markers" d=" M 247.5 50 C 247.5 48.6192881255 248.6192881255 47.5 250 47.5 C 251.3807118745 47.5 252.5 48.6192881255 252.5 50 C 252.5 51.3807118745 251.3807118745 52.5 250 52.5 C 248.6192881255 52.5 247.5 51.3807118745 247.5 50 Z" fill-opacity="1"/><path fill="rgb(0,0,0)" stroke="none" paint-order="stroke fill markers" d=" M 247.5 100 C 247.5 98.6192881255 248.6192881255 97.5 250 97.5 C 251.3807118745 97.5 252.5 98.6192881255 252.5 100 C 252.5 101.3807118745 251.3807118745 102.5 250 102.5 C 248.6192881255 102.5 247.5 101.3807118745 247.5 100 Z" fill-opacity="1"/><path fill="rgb(0,0,0)" stroke="none" paint-order="stroke fill markers" d=" M 247.5 150 C 247.5 148.6192881255 248.6192881255 147.5 250 147.5 C 251.3807118745 147.5 252.5 148.6192881255 252.5 150 C 252.5 151.3807118745 251.3807118745 152.5 250 152.5 C 248.6192881255 152.5 247.5 151.3807118745 247.5 150 Z" fill-opacity="1"/><path fill="rgb(0,0,0)" stroke="none" paint-order="stroke fill markers" d=" M 247.5 200 C 247.5 198.6192881255 248.6192881255 197.5 250 197.5 C 251.3807118745 197.5 252.5 198.6192881255 252.5 200 C 252.5 201.3807118745 251.3807118745 202.5 250 202.5 C 248.6192881255 202.5 247.5 201.3807118745 247.5 200 Z" fill-opacity="1"/><path fill="rgb(0,0,0)" stroke="none" paint-order="stroke fill markers" d=" M 247.5 250 C 247.5 248.6192881255 248.6192881255 247.5 250 247.5 C 251.3807118745 247.5 252.5 248.6192881255 252.5 250 C 252.5 251.3807118745 251.3807118745 252.5 250 252.5 C 248.6192881255 252.5 247.5 251.3807118745 247.5 250 Z" fill-opacity="1"/><path fill="rgb(0,0,0)" stroke="none" paint-order="stroke fill markers" d=" M 247.5 300 C 247.5 298.6192881255 248.6192881255 297.5 250 297.5 C 251.3807118745 297.5 252.5 298.6192881255 252.5 300 C 252.5 301.3807118745 251.3807118745 302.5 250 302.5 C 248.6192881255 302.5 247.5 301.3807118745 247.5 300 Z" fill-opacity="1"/><path fill="rgb(0,0,0)" stroke="none" paint-order="stroke fill markers" d=" M 247.5 350 C 247.5 348.6192881255 248.6192881255 347.5 250 347.5 C 251.3807118745 347.5 252.5 348.6192881255 252.5 350 C 252.5 351.3807118745 251.3807118745 352.5 250 352.5 C 248.6192881255 352.5 247.5 351.3807118745 247.5 350 Z" fill-opacity="1"/><path fill="rgb(0,0,0)" stroke="none" paint-order="stroke fill markers" d=" M 297.5 50 C 297.5 48.6192881255 298.6192881255 47.5 300 47.5 C 301.3807118745 47.5 302.5 48.6192881255 302.5 50 C 302.5 51.3807118745 301.3807118745 52.5 300 52.5 C 298.6192881255 52.5 297.5 51.3807118745 297.5 50 Z" fill-opacity="1"/><path fill="rgb(0,0,0)" stroke="none" paint-order="stroke fill markers" d=" M 297.5 100 C 297.5 98.6192881255 298.6192881255 97.5 300 97.5 C 301.3807118745 97.5 302.5 98.6192881255 302.5 100 C 302.5 101.3807118745 301.3807118745 102.5 300 102.5 C 298.6192881255 102.5 297.5 101.3807118745 297.5 100 Z" fill-opacity="1"/><path fill="rgb(0,0,0)" stroke="none" paint-order="stroke fill markers" d=" M 297.5 150 C 297.5 148.6192881255 298.6192881255 147.5 300 147.5 C 301.3807118745 147.5 302.5 148.6192881255 302.5 150 C 302.5 151.3807118745 301.3807118745 152.5 300 152.5 C 298.6192881255 152.5 297.5 151.3807118745 297.5 150 Z" fill-opacity="1"/><path fill="rgb(0,0,0)" stroke="none" paint-order="stroke fill markers" d=" M 297.5 200 C 297.5 198.6192881255 298.6192881255 197.5 300 197.5 C 301.3807118745 197.5 302.5 198.6192881255 302.5 200 C 302.5 201.3807118745 301.3807118745 202.5 300 202.5 C 298.6192881255 202.5 297.5 201.3807118745 297.5 200 Z" fill-opacity="1"/><path fill="rgb(0,0,0)" stroke="none" paint-order="stroke fill markers" d=" M 297.5 250 C 297.5 248.6192881255 298.6192881255 247.5 300 247.5 C 301.3807118745 247.5 302.5 248.6192881255 302.5 250 C 302.5 251.3807118745 301.3807118745 252.5 300 252.5 C 298.6192881255 252.5 297.5 251.3807118745 297.5 250 Z" fill-opacity="1"/><path fill="rgb(0,0,0)" stroke="none" paint-order="stroke fill markers" d=" M 297.5 300 C 297.5 298.6192881255 298.6192881255 297.5 300 297.5 C 301.3807118745 297.5 302.5 298.6192881255 302.5 300 C 302.5 301.3807118745 301.3807118745 302.5 300 302.5 C 298.6192881255 302.5 297.5 301.3807118745 297.5 300 Z" fill-opacity="1"/><path fill="rgb(0,0,0)" stroke="none" paint-order="stroke fill markers" d=" M 297.5 350 C 297.5 348.6192881255 298.6192881255 347.5 300 347.5 C 301.3807118745 347.5 302.5 348.6192881255 302.5 350 C 302.5 351.3807118745 301.3807118745 352.5 300 352.5 C 298.6192881255 352.5 297.5 351.3807118745 297.5 350 Z" fill-opacity="1"/><path fill="rgb(0,0,0)" stroke="none" paint-order="stroke fill markers" d=" M 347.5 50 C 347.5 48.6192881255 348.6192881255 47.5 350 47.5 C 351.3807118745 47.5 352.5 48.6192881255 352.5 50 C 352.5 51.3807118745 351.3807118745 52.5 350 52.5 C 348.6192881255 52.5 347.5 51.3807118745 347.5 50 Z" fill-opacity="1"/><path fill="rgb(0,0,0)" stroke="none" paint-order="stroke fill markers" d=" M 347.5 100 C 347.5 98.6192881255 348.6192881255 97.5 350 97.5 C 351.3807118745 97.5 352.5 98.6192881255 352.5 100 C 352.5 101.3807118745 351.3807118745 102.5 350 102.5 C 348.6192881255 102.5 347.5 101.3807118745 347.5 100 Z" fill-opacity="1"/><path fill="rgb(0,0,0)" stroke="none" paint-order="stroke fill markers" d=" M 347.5 150 C 347.5 148.6192881255 348.6192881255 147.5 350 147.5 C 351.3807118745 147.5 352.5 148.6192881255 352.5 150 C 352.5 151.3807118745 351.3807118745 152.5 350 152.5 C 348.6192881255 152.5 347.5 151.3807118745 347.5 150 Z" fill-opacity="1"/><path fill="rgb(0,0,0)" stroke="none" paint-order="stroke fill markers" d=" M 347.5 200 C 347.5 198.6192881255 348.6192881255 197.5 350 197.5 C 351.3807118745 197.5 352.5 198.6192881255 352.5 200 C 352.5 201.3807118745 351.3807118745 202.5 350 202.5 C 348.6192881255 202.5 347.5 201.3807118745 347.5 200 Z" fill-opacity="1"/><path fill="rgb(0,0,0)" stroke="none" paint-order="stroke fill markers" d=" M 347.5 250 C 347.5 248.6192881255 348.6192881255 247.5 350 247.5 C 351.3807118745 247.5 352.5 248.6192881255 352.5 250 C 352.5 251.3807118745 351.3807118745 252.5 350 252.5 C 348.6192881255 252.5 347.5 251.3807118745 347.5 250 Z" fill-opacity="1"/><path fill="rgb(0,0,0)" stroke="none" paint-order="stroke fill markers" d=" M 347.5 300 C 347.5 298.6192881255 348.6192881255 297.5 350 297.5 C 351.3807118745 297.5 352.5 298.6192881255 352.5 300 C 352.5 301.3807118745 351.3807118745 302.5 350 302.5 C 348.6192881255 302.5 347.5 301.3807118745 347.5 300 Z" fill-opacity="1"/><path fill="rgb(0,0,0)" stroke="none" paint-order="stroke fill markers" d=" M 347.5 350 C 347.5 348.6192881255 348.6192881255 347.5 350 347.5 C 351.3807118745 347.5 352.5 348.6192881255 352.5 350 C 352.5 351.3807118745 351.3807118745 352.5 350 352.5 C 348.6192881255 352.5 347.5 351.3807118745 347.5 350 Z" fill-opacity="1"/></g><path fill="none" stroke="rgb(0,0,255)" paint-order="fill stroke markers" d=" M 62.16726188957803 63.832738110421964 L 38.83273811042197 87.16726188957803" stroke-opacity="1" stroke-linecap="round" stroke-miterlimit="10" stroke-dasharray=""/><g><path fill="none" stroke="rgb(0,0,255)" paint-order="fill stroke markers" d=" M 38.33273811042197 61.667261889578036 C 31.88908729652601 55.22361107568208 31.88908729652601 44.77638892431793 38.332738110421964 38.33273811042197 C 44.77638892431792 31.88908729652601 55.22361107568207 31.88908729652601 61.66726188957803 38.332738110421964 C 68.11091270347399 44.77638892431792 68.11091270347399 55.22361107568207 61.667261889578036 61.66726188957803" stroke-opacity="1" stroke-linecap="round" stroke-miterlimit="10" stroke-dasharray=""/></g><g><path fill="none" stroke="rgb(0,0,255)" paint-order="fill stroke markers" d=" M 61.667261889578036 111.66726188957803 C 55.22361107568208 118.11091270347399 44.77638892431793 118.11091270347399 38.33273811042197 111.66726188957803 C 31.88908729652601 105.22361107568207 31.88908729652601 94.77638892431793 38.332738110421964 88.33273811042197" stroke-opacity="1" stroke-linecap="round" stroke-miterlimit="10" stroke-dasharray=""/></g><path fill="none" stroke="rgb(0,0,255)" paint-order="fill stroke markers" d=" M 87.16726188957803 88.83273811042197 L 63.83273811042197 112.16726188957803" stroke-opacity="1" stroke-linecap="round" stroke-miterlimit="10" stroke-dasharray=""/><g><path fill="none" stroke="rgb(0,0,255)" paint-order="fill stroke markers" d=" M 88.33273811042196 88.33273811042197 C 94.77638892431793 81.88908729652601 105.22361107568207 81.88908729652601 111.66726188957803 88.33273811042196" stroke-opacity="1" stroke-linecap="round" stroke-miterlimit="10" stroke-dasharray=""/></g><path fill="none" stroke="rgb(0,0,255)" paint-order="fill stroke markers" d=" M 113.83273811042197 88.83273811042197 L 137.16726188957804 112.16726188957803" stroke-opacity="1" stroke-linecap="round" stroke-miterlimit="10" stroke-dasharray=""/><g><path fill="none" stroke="rgb(0,0,255)" paint-order="fill stroke markers" d=" M 161.66726188957804 111.66726188957803 C 155.22361107568207 118.11091270347399 144.77638892431793 118.11091270347399 138.33273811042196 111.66726188957803" stroke-opacity="1" stroke-linecap="round" stroke-miterlimit="10" stroke-dasharray=""/></g><path fill="none" stroke="rgb(0,0,255)" paint-order="fill stroke markers" d=" M 187.16726188957804 88.83273811042197 L 163.83273811042196 112.16726188957803" stroke-opacity="1" stroke-linecap="round" stroke-miterlimit="10" stroke-dasharray=""/><g><path fill="none" stroke="rgb(0,0,255)" paint-order="fill stroke markers" d=" M 188.33273811042196 88.33273811042197 C 194.77638892431793 81.88908729652601 205.22361107568207 81.88908729652601 211.66726188957804 88.33273811042196" stroke-opacity="1" stroke-linecap="round" stroke-miterlimit="10" stroke-dasharray=""/></g><path fill="none" stroke="rgb(0,0,255)" paint-order="fill stroke markers" d=" M 213.83273811042196 88.83273811042197 L 237.16726188957804 112.16726188957803" stroke-opacity="1" stroke-linecap="round" stroke-miterlimit="10" stroke-dasharray=""/><g><path fill="none" stroke="rgb(0,0,255)" paint-order="fill stroke markers" d=" M 261.667261889578 88.33273811042197 C 268.110912703474 94.77638892431793 268.110912703474 105.22361107568207 261.667261889578 111.66726188957803 C 255.22361107568207 118.11091270347399 244.77638892431793 118.11091270347399 238.33273811042196 111.66726188957804" stroke-opacity="1" stroke-linecap="round" stroke-miterlimit="10" stroke-dasharray=""/></g><path fill="none" stroke="rgb(0,0,255)" paint-order="fill stroke markers" d=" M 238.83273811042196 63.83273811042197 L 262.167261889578 87.16726188957803" stroke-opacity="1" stroke-linecap="round" stroke-miterlimit="10" stroke-dasharray=""/><path fill="none" stroke="rgb(0,0,255)" paint-order="fill stroke markers" d=" M 213.83273811042196 38.83273811042197 L 237.16726188957804 62.16726188957803" stroke-opacity="1" stroke-linecap="round" stroke-miterlimit="10" stroke-dasharray=""/><g><path fill="none" stroke="rgb(0,0,255)" paint-order="fill stroke markers" d=" M 188.33273811042196 38.33273811042197 C 194.77638892431793 31.88908729652601 205.22361107568207 31.88908729652601 211.66726188957804 38.332738110421964" stroke-opacity="1" stroke-linecap="round" stroke-miterlimit="10" stroke-dasharray=""/></g><path fill="none" stroke="rgb(0,0,255)" paint-order="fill stroke markers" d=" M 187.16726188957804 38.832738110421964 L 163.83273811042196 62.167261889578036" stroke-opacity="1" stroke-linecap="round" stroke-miterlimit="10" stroke-dasharray=""/><g><path fill="none" stroke="rgb(0,0,255)" paint-order="fill stroke markers" d=" M 161.66726188957804 61.66726188957803 C 155.22361107568207 68.11091270347399 144.77638892431793 68.11091270347399 138.33273811042199 61.667261889578036" stroke-opacity="1" stroke-linecap="round" stroke-miterlimit="10" stroke-dasharray=""/></g><path fill="none" stroke="rgb(0,0,255)" paint-order="fill stroke markers" d=" M 113.83273811042197 38.83273811042197 L 137.16726188957804 62.16726188957803" stroke-opacity="1" stroke-linecap="round" stroke-miterlimit="10" stroke-dasharray=""/><path fill="none" stroke="rgb(0,0,255)" paint-order="fill stroke markers" d=" M 137.16726188957804 38.832738110421964 L 113.83273811042197 62.167261889578036" stroke-opacity="1" stroke-linecap="round" stroke-miterlimit="10" stroke-dasharray=""/><g><path fill="none" stroke="rgb(0,0,255)" paint-order="fill stroke markers" d=" M 138.33273811042196 38.33273811042197 C 144.77638892431793 31.88908729652601 155.22361107568207 31.88908729652601 161.66726188957804 38.332738110421964" stroke-opacity="1" stroke-linecap="round" stroke-miterlimit="10" stroke-dasharray=""/></g><path fill="none" stroke="rgb(0,0,255)" paint-order="fill stroke markers" d=" M 163.83273811042196 38.83273811042197 L 187.16726188957804 62.16726188957803" stroke-opacity="1" stroke-linecap="round" stroke-miterlimit="10" stroke-dasharray=""/><g><path fill="none" stroke="rgb(0,0,255)" paint-order="fill stroke markers" d=" M 211.66726188957804 61.66726188957803 C 205.22361107568207 68.11091270347399 194.77638892431793 68.11091270347399 188.33273811042196 61.667261889578036" stroke-opacity="1" stroke-linecap="round" stroke-miterlimit="10" stroke-dasharray=""/></g><path fill="none" stroke="rgb(0,0,255)" paint-order="fill stroke markers" d=" M 237.16726188957804 38.832738110421964 L 213.83273811042196 62.167261889578036" stroke-opacity="1" stroke-linecap="round" stroke-miterlimit="10" stroke-dasharray=""/><g><path fill="none" stroke="rgb(0,0,255)" paint-order="fill stroke markers" d=" M 238.33273811042196 38.33273811042197 C 244.77638892431793 31.88908729652601 255.22361107568207 31.88908729652601 261.667261889578 38.332738110421964 C 268.110912703474 44.77638892431792 268.110912703474 55.22361107568207 261.667261889578 61.66726188957803" stroke-opacity="1" stroke-linecap="round" stroke-miterlimit="10" stroke-dasharray=""/></g><path fill="none" stroke="rgb(0,0,255)" paint-order="fill stroke markers" d=" M 262.167261889578 63.832738110421964 L 238.83273811042196 87.16726188957803" stroke-opacity="1" stroke-linecap="round" stroke-miterlimit="10" stroke-dasharray=""/><path fill="none" stroke="rgb(0,0,255)" paint-order="fill stroke markers" d=" M 237.16726188957804 88.83273811042197 L 213.83273811042196 112.16726188957803" stroke-opacity="1" stroke-linecap="round" stroke-miterlimit="10" stroke-dasharray=""/><g><path fill="none" stroke="rgb(0,0,255)" paint-order="fill stroke markers" d=" M 211.66726188957804 111.66726188957803 C 205.22361107568207 118.11091270347399 194.77638892431793 118.11091270347399 188.33273811042199 111.66726188957804" stroke-opacity="1" stroke-linecap="round" stroke-miterlimit="10" stroke-dasharray=""/></g><path fill="none" stroke="rgb(0,0,255)" paint-order="fill stroke markers" d=" M 163.83273811042196 88.83273811042197 L 187.16726188957804 112.16726188957803" stroke-opacity="1" stroke-linecap="round" stroke-miterlimit="10" stroke-dasharray=""/><g><path fill="none" stroke="rgb(0,0,255)" paint-order="fill stroke markers" d=" M 138.33273811042196 88.33273811042197 C 144.77638892431793 81.88908729652601 155.22361107568207 81.88908729652601 161.66726188957804 88.33273811042196" stroke-opacity="1" stroke-linecap="round" stroke-miterlimit="10" stroke-dasharray=""/></g><path fill="none" stroke="rgb(0,0,255)" paint-order="fill stroke markers" d=" M 137.16726188957804 88.83273811042197 L 113.83273811042197 112.16726188957803" stroke-opacity="1" stroke-linecap="round" stroke-miterlimit="10" stroke-dasharray=""/><g><path fill="none" stroke="rgb(0,0,255)" paint-order="fill stroke markers" d=" M 111.66726188957804 111.66726188957803 C 105.22361107568209 118.11091270347399 94.77638892431793 118.11091270347399 88.33273811042197 111.66726188957804" stroke-opacity="1" stroke-linecap="round" stroke-miterlimit="10" stroke-dasharray=""/></g><path fill="none" stroke="rgb(0,0,255)" paint-order="fill stroke markers" d=" M 63.832738110421964 88.83273811042197 L 87.16726188957803 112.16726188957803" stroke-opacity="1" stroke-linecap="round" stroke-miterlimit="10" stroke-dasharray=""/><path fill="none" stroke="rgb(0,0,255)" paint-order="fill stroke markers" d=" M 38.832738110421964 63.83273811042197 L 62.167261889578036 87.16726188957803" stroke-opacity="1" stroke-linecap="round" stroke-miterlimit="10" stroke-dasharray=""/><path fill="none" stroke="rgb(0,0,255)" paint-order="fill stroke markers" d=" M 113.83273811042197 338.832738110422 L 137.16726188957804 362.167261889578" stroke-opacity="1" stroke-linecap="round" stroke-miterlimit="10" stroke-dasharray=""/><g><path fill="none" stroke="rgb(0,0,255)" paint-order="fill stroke markers" d=" M 111.66726188957803 361.667261889578 C 105.22361107568207 368.110912703474 94.77638892431793 368.110912703474 88.33273811042197 361.667261889578 C 81.88908729652601 355.2236110756821 81.88908729652601 344.7763889243179 88.33273811042196 338.332738110422 C 94.77638892431793 331.889087296526 105.22361107568207 331.889087296526 111.66726188957803 338.332738110422" stroke-opacity="1" stroke-linecap="round" stroke-miterlimit="10" stroke-dasharray=""/></g><path fill="none" stroke="rgb(0,0,255)" paint-order="fill stroke markers" d=" M 137.16726188957804 338.832738110422 L 113.83273811042197 362.167261889578" stroke-opacity="1" stroke-linecap="round" stroke-miterlimit="10" stroke-dasharray=""/><path fill="none" stroke="rgb(0,0,255)" paint-order="fill stroke markers" d=" M 63.832738110421964 238.83273811042196 L 87.16726188957803 262.167261889578" stroke-opacity="1" stroke-linecap="round" stroke-miterlimit="10" stroke-dasharray=""/><g><path fill="none" stroke="rgb(0,0,255)" paint-order="fill stroke markers" d=" M 61.667261889578036 261.667261889578 C 55.22361107568208 268.110912703474 44.77638892431793 268.110912703474 38.33273811042197 261.667261889578 C 31.88908729652601 255.22361107568207 31.88908729652601 244.77638892431793 38.332738110421964 238.33273811042196 C 44.77638892431792 231.88908729652601 55.22361107568207 231.88908729652601 61.66726188957803 238.33273811042196" stroke-opacity="1" stroke-linecap="round" stroke-miterlimit="10" stroke-dasharray=""/></g><path fill="none" stroke="rgb(0,0,255)" paint-order="fill stroke markers" d=" M 87.16726188957803 238.83273811042196 L 63.83273811042197 262.167261889578" stroke-opacity="1" stroke-linecap="round" stroke-miterlimit="10" stroke-dasharray=""/><path fill="none" stroke="rgb(0,0,255)" paint-order="fill stroke markers" d=" M 312.167261889578 163.83273811042196 L 288.832738110422 187.16726188957804" stroke-opacity="1" stroke-linecap="round" stroke-miterlimit="10" stroke-dasharray=""/><g><path fill="none" stroke="rgb(0,0,255)" paint-order="fill stroke markers" d=" M 288.332738110422 161.66726188957804 C 281.889087296526 155.22361107568207 281.889087296526 144.77638892431793 288.332738110422 138.33273811042196 C 294.7763889243179 131.88908729652601 305.2236110756821 131.88908729652601 311.667261889578 138.33273811042196 C 318.110912703474 144.77638892431793 318.110912703474 155.22361107568207 311.667261889578 161.66726188957804" stroke-opacity="1" stroke-linecap="round" stroke-miterlimit="10" stroke-dasharray=""/></g><g><path fill="none" stroke="rgb(0,0,255)" paint-order="fill stroke markers" d=" M 288.332738110422 211.66726188957804 C 281.889087296526 205.22361107568207 281.889087296526 194.77638892431793 288.332738110422 188.33273811042196" stroke-opacity="1" stroke-linecap="round" stroke-miterlimit="10" stroke-dasharray=""/></g><path fill="none" stroke="rgb(0,0,255)" paint-order="fill stroke markers" d=" M 288.832738110422 213.83273811042196 L 312.167261889578 237.16726188957804" stroke-opacity="1" stroke-linecap="round" stroke-miterlimit="10" stroke-dasharray=""/><g><path fill="none" stroke="rgb(0,0,255)" paint-order="fill stroke markers" d=" M 311.667261889578 238.33273811042196 C 318.110912703474 244.77638892431793 318.110912703474 255.22361107568207 311.667261889578 261.667261889578" stroke-opacity="1" stroke-linecap="round" stroke-miterlimit="10" stroke-dasharray=""/></g><path fill="none" stroke="rgb(0,0,255)" paint-order="fill stroke markers" d=" M 312.167261889578 263.832738110422 L 288.832738110422 287.167261889578" stroke-opacity="1" stroke-linecap="round" stroke-miterlimit="10" stroke-dasharray=""/><g><path fill="none" stroke="rgb(0,0,255)" paint-order="fill stroke markers" d=" M 288.332738110422 311.667261889578 C 281.889087296526 305.2236110756821 281.889087296526 294.7763889243179 288.332738110422 288.332738110422" stroke-opacity="1" stroke-linecap="round" stroke-miterlimit="10" stroke-dasharray=""/></g><path fill="none" stroke="rgb(0,0,255)" paint-order="fill stroke markers" d=" M 288.832738110422 313.832738110422 L 312.167261889578 337.167261889578" stroke-opacity="1" stroke-linecap="round" stroke-miterlimit="10" stroke-dasharray=""/><g><path fill="none" stroke="rgb(0,0,255)" paint-order="fill stroke markers" d=" M 311.667261889578 338.332738110422 C 318.110912703474 344.7763889243179 318.110912703474 355.2236110756821 311.667261889578 361.667261889578 C 305.2236110756821 368.110912703474 294.7763889243179 368.110912703474 288.332738110422 361.667261889578" stroke-opacity="1" stroke-linecap="round" stroke-miterlimit="10" stroke-dasharray=""/></g><path fill="none" stroke="rgb(0,0,255)" paint-order="fill stroke markers" d=" M 263.832738110422 338.832738110422 L 287.167261889578 362.167261889578" stroke-opacity="1" stroke-linecap="round" stroke-miterlimit="10" stroke-dasharray=""/><path fill="none" stroke="rgb(0,0,255)" paint-order="fill stroke markers" d=" M 238.83273811042196 313.832738110422 L 262.167261889578 337.167261889578" stroke-opacity="1" stroke-linecap="round" stroke-miterlimit="10" stroke-dasharray=""/><g><path fill="none" stroke="rgb(0,0,255)" paint-order="fill stroke markers" d=" M 238.33273811042196 311.667261889578 C 231.88908729652601 305.2236110756821 231.88908729652601 294.7763889243179 238.33273811042196 288.332738110422" stroke-opacity="1" stroke-linecap="round" stroke-miterlimit="10" stroke-dasharray=""/></g><path fill="none" stroke="rgb(0,0,255)" paint-order="fill stroke markers" d=" M 262.167261889578 263.832738110422 L 238.83273811042196 287.167261889578" stroke-opacity="1" stroke-linecap="round" stroke-miterlimit="10" stroke-dasharray=""/><g><path fill="none" stroke="rgb(0,0,255)" paint-order="fill stroke markers" d=" M 261.667261889578 238.33273811042196 C 268.110912703474 244.77638892431793 268.110912703474 255.22361107568207 261.667261889578 261.667261889578" stroke-opacity="1" stroke-linecap="round" stroke-miterlimit="10" stroke-dasharray=""/></g><path fill="none" stroke="rgb(0,0,255)" paint-order="fill stroke markers" d=" M 238.83273811042196 213.83273811042196 L 262.167261889578 237.16726188957804" stroke-opacity="1" stroke-linecap="round" stroke-miterlimit="10" stroke-dasharray=""/><g><path fill="none" stroke="rgb(0,0,255)" paint-order="fill stroke markers" d=" M 238.33273811042196 211.66726188957804 C 231.88908729652601 205.22361107568207 231.88908729652601 194.77638892431793 238.33273811042196 188.33273811042196" stroke-opacity="1" stroke-linecap="round" stroke-miterlimit="10" stroke-dasharray=""/></g><path fill="none" stroke="rgb(0,0,255)" paint-order="fill stroke markers" d=" M 262.167261889578 163.83273811042196 L 238.83273811042196 187.16726188957804" stroke-opacity="1" stroke-linecap="round" stroke-miterlimit="10" stroke-dasharray=""/><g><path fill="none" stroke="rgb(0,0,255)" paint-order="fill stroke markers" d=" M 238.33273811042196 138.33273811042196 C 244.77638892431793 131.88908729652601 255.22361107568207 131.88908729652601 261.667261889578 138.33273811042196 C 268.110912703474 144.77638892431793 268.110912703474 155.22361107568207 261.667261889578 161.66726188957804" stroke-opacity="1" stroke-linecap="round" stroke-miterlimit="10" stroke-dasharray=""/></g><path fill="none" stroke="rgb(0,0,255)" paint-order="fill stroke markers" d=" M 237.16726188957804 138.83273811042196 L 213.83273811042196 162.16726188957804" stroke-opacity="1" stroke-linecap="round" stroke-miterlimit="10" stroke-dasharray=""/><path fill="none" stroke="rgb(0,0,255)" paint-order="fill stroke markers" d=" M 213.83273811042196 138.83273811042196 L 237.16726188957804 162.16726188957804" stroke-opacity="1" stroke-linecap="round" stroke-miterlimit="10" stroke-dasharray=""/><path fill="none" stroke="rgb(0,0,255)" paint-order="fill stroke markers" d=" M 238.83273811042196 163.83273811042196 L 262.167261889578 187.16726188957804" stroke-opacity="1" stroke-linecap="round" stroke-miterlimit="10" stroke-dasharray=""/><g><path fill="none" stroke="rgb(0,0,255)" paint-order="fill stroke markers" d=" M 261.667261889578 188.33273811042196 C 268.110912703474 194.77638892431793 268.110912703474 205.22361107568207 261.667261889578 211.66726188957804" stroke-opacity="1" stroke-linecap="round" stroke-miterlimit="10" stroke-dasharray=""/></g><path fill="none" stroke="rgb(0,0,255)" paint-order="fill stroke markers" d=" M 262.167261889578 213.83273811042196 L 238.83273811042196 237.16726188957804" stroke-opacity="1" stroke-linecap="round" stroke-miterlimit="10" stroke-dasharray=""/><g><path fill="none" stroke="rgb(0,0,255)" paint-order="fill stroke markers" d=" M 238.33273811042196 261.667261889578 C 231.88908729652601 255.22361107568207 231.88908729652601 244.77638892431793 238.33273811042196 238.33273811042196" stroke-opacity="1" stroke-linecap="round" stroke-miterlimit="10" stroke-dasharray=""/></g><path fill="none" stroke="rgb(0,0,255)" paint-order="fill stroke markers" d=" M 238.83273811042196 263.832738110422 L 262.167261889578 287.167261889578" stroke-opacity="1" stroke-linecap="round" stroke-miterlimit="10" stroke-dasharray=""/><g><path fill="none" stroke="rgb(0,0,255)" paint-order="fill stroke markers" d=" M 261.667261889578 288.332738110422 C 268.110912703474 294.7763889243179 268.110912703474 305.2236110756821 261.667261889578 311.667261889578" stroke-opacity="1" stroke-linecap="round" stroke-miterlimit="10" stroke-dasharray=""/></g><path fill="none" stroke="rgb(0,0,255)" paint-order="fill stroke markers" d=" M 262.167261889578 313.832738110422 L 238.83273811042196 337.167261889578" stroke-opacity="1" stroke-linecap="round" stroke-miterlimit="10" stroke-dasharray=""/><g><path fill="none" stroke="rgb(0,0,255)" paint-order="fill stroke markers" d=" M 261.667261889578 361.667261889578 C 255.22361107568207 368.110912703474 244.77638892431793 368.110912703474 238.33273811042196 361.667261889578 C 231.88908729652601 355.2236110756821 231.88908729652601 344.7763889243179 238.33273811042196 338.332738110422" stroke-opacity="1" stroke-linecap="round" stroke-miterlimit="10" stroke-dasharray=""/></g><path fill="none" stroke="rgb(0,0,255)" paint-order="fill stroke markers" d=" M 287.167261889578 338.832738110422 L 263.832738110422 362.167261889578" stroke-opacity="1" stroke-linecap="round" stroke-miterlimit="10" stroke-dasharray=""/><path fill="none" stroke="rgb(0,0,255)" paint-order="fill stroke markers" d=" M 312.167261889578 313.832738110422 L 288.832738110422 337.167261889578" stroke-opacity="1" stroke-linecap="round" stroke-miterlimit="10" stroke-dasharray=""/><g><path fill="none" stroke="rgb(0,0,255)" paint-order="fill stroke markers" d=" M 311.667261889578 288.332738110422 C 318.110912703474 294.7763889243179 318.110912703474 305.2236110756821 311.667261889578 311.667261889578" stroke-opacity="1" stroke-linecap="round" stroke-miterlimit="10" stroke-dasharray=""/></g><path fill="none" stroke="rgb(0,0,255)" paint-order="fill stroke markers" d=" M 288.832738110422 263.832738110422 L 312.167261889578 287.167261889578" stroke-opacity="1" stroke-linecap="round" stroke-miterlimit="10" stroke-dasharray=""/><g><path fill="none" stroke="rgb(0,0,255)" paint-order="fill stroke markers" d=" M 288.332738110422 261.667261889578 C 281.889087296526 255.22361107568207 281.889087296526 244.77638892431793 288.332738110422 238.33273811042196" stroke-opacity="1" stroke-linecap="round" stroke-miterlimit="10" stroke-dasharray=""/></g><path fill="none" stroke="rgb(0,0,255)" paint-order="fill stroke markers" d=" M 312.167261889578 213.83273811042196 L 288.832738110422 237.16726188957804" stroke-opacity="1" stroke-linecap="round" stroke-miterlimit="10" stroke-dasharray=""/><g><path fill="none" stroke="rgb(0,0,255)" paint-order="fill stroke markers" d=" M 311.667261889578 188.33273811042196 C 318.110912703474 194.77638892431793 318.110912703474 205.22361107568207 311.667261889578 211.66726188957804" stroke-opacity="1" stroke-linecap="round" stroke-miterlimit="10" stroke-dasharray=""/></g><path fill="none" stroke="rgb(0,0,255)" paint-order="fill stroke markers" d=" M 288.832738110422 163.83273811042196 L 312.167261889578 187.16726188957804" stroke-opacity="1" stroke-linecap="round" stroke-miterlimit="10" stroke-dasharray=""/><path fill="none" stroke="rgb(0,0,255)" paint-order="fill stroke markers" d=" M 163.83273811042196 188.83273811042196 L 187.16726188957804 212.16726188957804" stroke-opacity="1" stroke-linecap="round" stroke-miterlimit="10" stroke-dasharray=""/><g><path fill="none" stroke="rgb(0,0,255)" paint-order="fill stroke markers" d=" M 161.66726188957804 211.66726188957804 C 155.22361107568207 218.11091270347399 144.77638892431793 218.11091270347399 138.33273811042196 211.66726188957804 C 131.88908729652601 205.22361107568207 131.88908729652601 194.77638892431793 138.33273811042196 188.33273811042196 C 144.77638892431793 181.88908729652601 155.22361107568207 181.88908729652601 161.66726188957804 188.33273811042196" stroke-opacity="1" stroke-linecap="round" stroke-miterlimit="10" stroke-dasharray=""/></g><path fill="none" stroke="rgb(0,0,255)" paint-order="fill stroke markers" d=" M 188.83273811042196 213.83273811042196 L 212.16726188957804 237.16726188957804" stroke-opacity="1" stroke-linecap="round" stroke-miterlimit="10" stroke-dasharray=""/><g><path fill="none" stroke="rgb(0,0,255)" paint-order="fill stroke markers" d=" M 211.66726188957804 238.33273811042196 C 218.11091270347399 244.77638892431793 218.11091270347399 255.22361107568207 211.66726188957804 261.667261889578 C 205.22361107568207 268.110912703474 194.77638892431793 268.110912703474 188.33273811042196 261.667261889578" stroke-opacity="1" stroke-linecap="round" stroke-miterlimit="10" stroke-dasharray=""/></g><path fill="none" stroke="rgb(0,0,255)" paint-order="fill stroke markers" d=" M 163.83273811042196 238.83273811042196 L 187.16726188957804 262.167261889578" stroke-opacity="1" stroke-linecap="round" stroke-miterlimit="10" stroke-dasharray=""/><g><path fill="none" stroke="rgb(0,0,255)" paint-order="fill stroke markers" d=" M 138.33273811042196 261.667261889578 C 131.88908729652601 255.22361107568207 131.88908729652601 244.77638892431793 138.33273811042196 238.33273811042196 C 144.77638892431793 231.88908729652601 155.22361107568207 231.88908729652601 161.66726188957804 238.33273811042196" stroke-opacity="1" stroke-linecap="round" stroke-miterlimit="10" stroke-dasharray=""/></g><path fill="none" stroke="rgb(0,0,255)" paint-order="fill stroke markers" d=" M 138.83273811042196 263.832738110422 L 162.16726188957804 287.167261889578" stroke-opacity="1" stroke-linecap="round" stroke-miterlimit="10" stroke-dasharray=""/><path fill="none" stroke="rgb(0,0,255)" paint-order="fill stroke markers" d=" M 163.83273811042196 288.832738110422 L 187.16726188957804 312.167261889578" stroke-opacity="1" stroke-linecap="round" stroke-miterlimit="10" stroke-dasharray=""/><path fill="none" stroke="rgb(0,0,255)" paint-order="fill stroke markers" d=" M 188.83273811042196 313.832738110422 L 212.16726188957804 337.167261889578" stroke-opacity="1" stroke-linecap="round" stroke-miterlimit="10" stroke-dasharray=""/><path fill="none" stroke="rgb(0,0,255)" paint-order="fill stroke markers" d=" M 212.16726188957804 313.832738110422 L 188.83273811042196 337.167261889578" stroke-opacity="1" stroke-linecap="round" stroke-miterlimit="10" stroke-dasharray=""/><g><path fill="none" stroke="rgb(0,0,255)" paint-order="fill stroke markers" d=" M 188.33273811042196 288.332738110422 C 194.77638892431793 281.889087296526 205.22361107568207 281.889087296526 211.66726188957804 288.332738110422 C 218.11091270347399 294.7763889243179 218.11091270347399 305.2236110756821 211.66726188957804 311.667261889578" stroke-opacity="1" stroke-linecap="round" stroke-miterlimit="10" stroke-dasharray=""/></g><path fill="none" stroke="rgb(0,0,255)" paint-order="fill stroke markers" d=" M 187.16726188957804 288.832738110422 L 163.83273811042196 312.167261889578" stroke-opacity="1" stroke-linecap="round" stroke-miterlimit="10" stroke-dasharray=""/><g><path fill="none" stroke="rgb(0,0,255)" paint-order="fill stroke markers" d=" M 161.66726188957804 311.667261889578 C 155.22361107568207 318.110912703474 144.77638892431793 318.110912703474 138.33273811042196 311.667261889578 C 131.88908729652601 305.2236110756821 131.88908729652601 294.7763889243179 138.33273811042196 288.332738110422" stroke-opacity="1" stroke-linecap="round" stroke-miterlimit="10" stroke-dasharray=""/></g><path fill="none" stroke="rgb(0,0,255)" paint-order="fill stroke markers" d=" M 162.16726188957804 263.832738110422 L 138.83273811042196 287.167261889578" stroke-opacity="1" stroke-linecap="round" stroke-miterlimit="10" stroke-dasharray=""/><path fill="none" stroke="rgb(0,0,255)" paint-order="fill stroke markers" d=" M 187.16726188957804 238.83273811042196 L 163.83273811042196 262.167261889578" stroke-opacity="1" stroke-linecap="round" stroke-miterlimit="10" stroke-dasharray=""/><path fill="none" stroke="rgb(0,0,255)" paint-order="fill stroke markers" d=" M 212.16726188957804 213.83273811042196 L 188.83273811042196 237.16726188957804" stroke-opacity="1" stroke-linecap="round" stroke-miterlimit="10" stroke-dasharray=""/><g><path fill="none" stroke="rgb(0,0,255)" paint-order="fill stroke markers" d=" M 188.33273811042196 188.33273811042196 C 194.77638892431793 181.88908729652601 205.22361107568207 181.88908729652601 211.66726188957804 188.33273811042196 C 218.11091270347399 194.77638892431793 218.11091270347399 205.22361107568207 211.66726188957804 211.66726188957804" stroke-opacity="1" stroke-linecap="round" stroke-miterlimit="10" stroke-dasharray=""/></g><path fill="none" stroke="rgb(0,0,255)" paint-order="fill stroke markers" d=" M 187.16726188957804 188.83273811042196 L 163.83273811042196 212.16726188957804" stroke-opacity="1" stroke-linecap="round" stroke-miterlimit="10" stroke-dasharray=""/><path fill="none" stroke="rgb(0,0,255)" paint-order="fill stroke markers" d=" M 362.167261889578 113.83273811042197 L 338.832738110422 137.16726188957804" stroke-opacity="1" stroke-linecap="round" stroke-miterlimit="10" stroke-dasharray=""/><g><path fill="none" stroke="rgb(0,0,255)" paint-order="fill stroke markers" d=" M 361.667261889578 138.33273811042196 C 368.110912703474 144.77638892431793 368.110912703474 155.22361107568207 361.667261889578 161.66726188957804 C 355.2236110756821 168.11091270347399 344.7763889243179 168.11091270347399 338.332738110422 161.66726188957804 C 331.889087296526 155.22361107568207 331.889087296526 144.77638892431793 338.332738110422 138.33273811042196" stroke-opacity="1" stroke-linecap="round" stroke-miterlimit="10" stroke-dasharray=""/></g><g><path fill="none" stroke="rgb(0,0,255)" paint-order="fill stroke markers" d=" M 338.332738110422 88.33273811042197 C 344.7763889243179 81.88908729652601 355.2236110756821 81.88908729652601 361.667261889578 88.33273811042196 C 368.110912703474 94.77638892431793 368.110912703474 105.22361107568207 361.667261889578 111.66726188957803" stroke-opacity="1" stroke-linecap="round" stroke-miterlimit="10" stroke-dasharray=""/></g><path fill="none" stroke="rgb(0,0,255)" paint-order="fill stroke markers" d=" M 337.167261889578 88.83273811042197 L 313.832738110422 112.16726188957803" stroke-opacity="1" stroke-linecap="round" stroke-miterlimit="10" stroke-dasharray=""/><g><path fill="none" stroke="rgb(0,0,255)" paint-order="fill stroke markers" d=" M 311.667261889578 111.66726188957803 C 305.2236110756821 118.11091270347399 294.7763889243179 118.11091270347399 288.332738110422 111.66726188957803 C 281.889087296526 105.22361107568207 281.889087296526 94.77638892431793 288.332738110422 88.33273811042197" stroke-opacity="1" stroke-linecap="round" stroke-miterlimit="10" stroke-dasharray=""/></g><path fill="none" stroke="rgb(0,0,255)" paint-order="fill stroke markers" d=" M 312.167261889578 63.832738110421964 L 288.832738110422 87.16726188957803" stroke-opacity="1" stroke-linecap="round" stroke-miterlimit="10" stroke-dasharray=""/><path fill="none" stroke="rgb(0,0,255)" paint-order="fill stroke markers" d=" M 337.167261889578 38.832738110421964 L 313.832738110422 62.167261889578036" stroke-opacity="1" stroke-linecap="round" stroke-miterlimit="10" stroke-dasharray=""/><path fill="none" stroke="rgb(0,0,255)" paint-order="fill stroke markers" d=" M 313.832738110422 38.83273811042197 L 337.167261889578 62.16726188957803" stroke-opacity="1" stroke-linecap="round" stroke-miterlimit="10" stroke-dasharray=""/><g><path fill="none" stroke="rgb(0,0,255)" paint-order="fill stroke markers" d=" M 288.332738110422 61.667261889578036 C 281.889087296526 55.22361107568208 281.889087296526 44.77638892431793 288.332738110422 38.33273811042197 C 294.7763889243179 31.88908729652601 305.2236110756821 31.88908729652601 311.667261889578 38.332738110421964" stroke-opacity="1" stroke-linecap="round" stroke-miterlimit="10" stroke-dasharray=""/></g><path fill="none" stroke="rgb(0,0,255)" paint-order="fill stroke markers" d=" M 288.832738110422 63.83273811042197 L 312.167261889578 87.16726188957803" stroke-opacity="1" stroke-linecap="round" stroke-miterlimit="10" stroke-dasharray=""/><path fill="none" stroke="rgb(0,0,255)" paint-order="fill stroke markers" d=" M 313.832738110422 88.83273811042197 L 337.167261889578 112.16726188957803" stroke-opacity="1" stroke-linecap="round" stroke-miterlimit="10" stroke-dasharray=""/><path fill="none" stroke="rgb(0,0,255)" paint-order="fill stroke markers" d=" M 338.832738110422 113.83273811042197 L 362.167261889578 137.16726188957804" stroke-opacity="1" stroke-linecap="round" stroke-miterlimit="10" stroke-dasharray=""/><path fill="none" stroke="rgb(0,0,255)" paint-order="fill stroke markers" d=" M 62.16726188957803 313.832738110422 L 38.83273811042197 337.167261889578" stroke-opacity="1" stroke-linecap="round" stroke-miterlimit="10" stroke-dasharray=""/><g><path fill="none" stroke="rgb(0,0,255)" paint-order="fill stroke markers" d=" M 38.33273811042197 311.667261889578 C 31.88908729652601 305.2236110756821 31.88908729652601 294.7763889243179 38.332738110421964 288.332738110422 C 44.77638892431792 281.889087296526 55.22361107568207 281.889087296526 61.66726188957803 288.332738110422 C 68.11091270347399 294.7763889243179 68.11091270347399 305.2236110756821 61.667261889578036 311.667261889578" stroke-opacity="1" stroke-linecap="round" stroke-miterlimit="10" stroke-dasharray=""/></g><path fill="none" stroke="rgb(0,0,255)" paint-order="fill stroke markers" d=" M 38.832738110421964 313.832738110422 L 62.167261889578036 337.167261889578" stroke-opacity="1" stroke-linecap="round" stroke-miterlimit="10" stroke-dasharray=""/><path fill="none" stroke="rgb(0,0,255)" paint-order="fill stroke markers" d=" M 62.16726188957803 163.83273811042196 L 38.83273811042197 187.16726188957804" stroke-opacity="1" stroke-linecap="round" stroke-miterlimit="10" stroke-dasharray=""/><g><path fill="none" stroke="rgb(0,0,255)" paint-order="fill stroke markers" d=" M 61.66726188957803 188.33273811042196 C 68.11091270347399 194.77638892431793 68.11091270347399 205.22361107568207 61.667261889578036 211.66726188957804 C 55.22361107568208 218.11091270347399 44.77638892431793 218.11091270347399 38.33273811042197 211.66726188957804 C 31.88908729652601 205.22361107568207 31.88908729652601 194.77638892431793 38.332738110421964 188.33273811042196" stroke-opacity="1" stroke-linecap="round" stroke-miterlimit="10" stroke-dasharray=""/></g><path fill="none" stroke="rgb(0,0,255)" paint-order="fill stroke markers" d=" M 87.16726188957803 138.83273811042196 L 63.83273811042197 162.16726188957804" stroke-opacity="1" stroke-linecap="round" stroke-miterlimit="10" stroke-dasharray=""/><g><path fill="none" stroke="rgb(0,0,255)" paint-order="fill stroke markers" d=" M 88.33273811042196 138.33273811042196 C 94.77638892431793 131.88908729652601 105.22361107568207 131.88908729652601 111.66726188957803 138.33273811042196" stroke-opacity="1" stroke-linecap="round" stroke-miterlimit="10" stroke-dasharray=""/></g><path fill="none" stroke="rgb(0,0,255)" paint-order="fill stroke markers" d=" M 113.83273811042197 138.83273811042196 L 137.16726188957804 162.16726188957804" stroke-opacity="1" stroke-linecap="round" stroke-miterlimit="10" stroke-dasharray=""/><path fill="none" stroke="rgb(0,0,255)" paint-order="fill stroke markers" d=" M 137.16726188957804 138.83273811042196 L 113.83273811042197 162.16726188957804" stroke-opacity="1" stroke-linecap="round" stroke-miterlimit="10" stroke-dasharray=""/><g><path fill="none" stroke="rgb(0,0,255)" paint-order="fill stroke markers" d=" M 111.66726188957804 161.66726188957801 C 105.22361107568209 168.11091270347399 94.77638892431793 168.11091270347399 88.33273811042197 161.66726188957804" stroke-opacity="1" stroke-linecap="round" stroke-miterlimit="10" stroke-dasharray=""/></g><path fill="none" stroke="rgb(0,0,255)" paint-order="fill stroke markers" d=" M 63.832738110421964 138.83273811042196 L 87.16726188957803 162.16726188957804" stroke-opacity="1" stroke-linecap="round" stroke-miterlimit="10" stroke-dasharray=""/><g><path fill="none" stroke="rgb(0,0,255)" paint-order="fill stroke markers" d=" M 38.33273811042197 161.66726188957804 C 31.88908729652601 155.22361107568207 31.88908729652601 144.77638892431793 38.332738110421964 138.33273811042196 C 44.77638892431792 131.88908729652601 55.22361107568207 131.88908729652601 61.66726188957803 138.33273811042196" stroke-opacity="1" stroke-linecap="round" stroke-miterlimit="10" stroke-dasharray=""/></g><path fill="none" stroke="rgb(0,0,255)" paint-order="fill stroke markers" d=" M 38.832738110421964 163.83273811042196 L 62.167261889578036 187.16726188957804" stroke-opacity="1" stroke-linecap="round" stroke-miterlimit="10" stroke-dasharray=""/><path fill="none" stroke="rgb(0,0,255)" paint-order="fill stroke markers" d=" M 362.167261889578 313.832738110422 L 338.832738110422 337.167261889578" stroke-opacity="1" stroke-linecap="round" stroke-miterlimit="10" stroke-dasharray=""/><g><path fill="none" stroke="rgb(0,0,255)" paint-order="fill stroke markers" d=" M 361.667261889578 338.332738110422 C 368.110912703474 344.7763889243179 368.110912703474 355.2236110756821 361.667261889578 361.667261889578 C 355.2236110756821 368.110912703474 344.7763889243179 368.110912703474 338.332738110422 361.667261889578 C 331.889087296526 355.2236110756821 331.889087296526 344.7763889243179 338.332738110422 338.332738110422" stroke-opacity="1" stroke-linecap="round" stroke-miterlimit="10" stroke-dasharray=""/></g><path fill="none" stroke="rgb(0,0,255)" paint-order="fill stroke markers" d=" M 338.832738110422 313.832738110422 L 362.167261889578 337.167261889578" stroke-opacity="1" stroke-linecap="round" stroke-miterlimit="10" stroke-dasharray=""/><g><path fill="none" stroke="rgb(0,0,255)" paint-order="fill stroke markers" d=" M 111.66726188957804 61.66726188957803 C 105.22361107568209 68.11091270347399 94.77638892431793 68.11091270347399 88.33273811042197 61.667261889578036 C 81.88908729652601 55.22361107568208 81.88908729652601 44.77638892431793 88.33273811042196 38.33273811042197 C 94.77638892431791 31.88908729652601 105.22361107568207 31.88908729652601 111.66726188957803 38.33273811042196" stroke-opacity="1" stroke-linecap="round" stroke-miterlimit="10" stroke-dasharray=""/></g><g><path fill="none" stroke="rgb(0,0,255)" paint-order="fill stroke markers" d=" M 138.33273811042196 338.332738110422 C 144.77638892431793 331.889087296526 155.22361107568207 331.889087296526 161.66726188957804 338.332738110422 C 168.11091270347399 344.7763889243179 168.11091270347399 355.2236110756821 161.66726188957804 361.667261889578 C 155.22361107568207 368.110912703474 144.77638892431793 368.110912703474 138.33273811042199 361.667261889578" stroke-opacity="1" stroke-linecap="round" stroke-miterlimit="10" stroke-dasharray=""/></g><g><path fill="none" stroke="rgb(0,0,255)" paint-order="fill stroke markers" d="" stroke-opacity="1" stroke-linecap="round" stroke-miterlimit="10" stroke-dasharray=""/></g><g><path fill="none" stroke="rgb(0,0,255)" paint-order="fill stroke markers" d=" M 88.33273811042196 238.33273811042196 C 94.77638892431793 231.88908729652601 105.22361107568207 231.88908729652601 111.66726188957803 238.33273811042196 C 118.11091270347399 244.77638892431793 118.11091270347399 255.22361107568207 111.66726188957804 261.667261889578 C 105.22361107568209 268.110912703474 94.77638892431793 268.110912703474 88.33273811042197 261.667261889578" stroke-opacity="1" stroke-linecap="round" stroke-miterlimit="10" stroke-dasharray=""/></g><g><path fill="none" stroke="rgb(0,0,255)" paint-order="fill stroke markers" d=" M 211.66726188957804 161.66726188957801 C 205.22361107568207 168.11091270347399 194.77638892431793 168.11091270347399 188.33273811042199 161.66726188957804 C 181.88908729652601 155.22361107568207 181.88908729652601 144.77638892431793 188.33273811042196 138.33273811042199 C 194.77638892431793 131.88908729652601 205.22361107568207 131.88908729652601 211.66726188957801 138.33273811042196" stroke-opacity="1" stroke-linecap="round" stroke-miterlimit="10" stroke-dasharray=""/></g><g><path fill="none" stroke="rgb(0,0,255)" paint-order="fill stroke markers" d=" M 211.66726188957804 338.332738110422 C 218.11091270347399 344.7763889243179 218.11091270347399 355.2236110756821 211.66726188957804 361.667261889578 C 205.22361107568207 368.110912703474 194.77638892431793 368.110912703474 188.33273811042196 361.667261889578 C 181.88908729652601 355.2236110756821 181.88908729652601 344.7763889243179 188.33273811042196 338.332738110422" stroke-opacity="1" stroke-linecap="round" stroke-miterlimit="10" stroke-dasharray=""/></g><g><path fill="none" stroke="rgb(0,0,255)" paint-order="fill stroke markers" d=" M 338.332738110422 38.33273811042197 C 344.7763889243179 31.88908729652601 355.2236110756821 31.88908729652601 361.667261889578 38.332738110421964 C 368.110912703474 44.77638892431792 368.110912703474 55.22361107568207 361.667261889578 61.66726188957803 C 355.2236110756821 68.11091270347399 344.7763889243179 68.11091270347399 338.332738110422 61.667261889578036" stroke-opacity="1" stroke-linecap="round" stroke-miterlimit="10" stroke-dasharray=""/></g><g><path fill="none" stroke="rgb(0,0,255)" paint-order="fill stroke markers" d=" M 61.66726188957803 338.332738110422 C 68.11091270347399 344.7763889243179 68.11091270347399 355.2236110756821 61.667261889578036 361.667261889578 C 55.22361107568208 368.110912703474 44.77638892431793 368.110912703474 38.33273811042197 361.667261889578 C 31.88908729652601 355.2236110756821 31.88908729652601 344.7763889243179 38.332738110421964 338.332738110422" stroke-opacity="1" stroke-linecap="round" stroke-miterlimit="10" stroke-dasharray=""/></g><g><path fill="none" stroke="rgb(0,0,255)" paint-order="fill stroke markers" d=" M 138.33273811042196 138.33273811042196 C 144.77638892431793 131.88908729652601 155.22361107568207 131.88908729652601 161.66726188957804 138.33273811042196 C 168.11091270347399 144.77638892431793 168.11091270347399 155.22361107568207 161.66726188957804 161.66726188957804 C 155.22361107568207 168.11091270347399 144.77638892431793 168.11091270347399 138.33273811042199 161.66726188957804" stroke-opacity="1" stroke-linecap="round" stroke-miterlimit="10" stroke-dasharray=""/></g><g><path fill="none" stroke="rgb(0,0,255)" paint-order="fill stroke markers" d="" stroke-opacity="1" stroke-linecap="round" stroke-miterlimit="10" stroke-dasharray=""/></g><g><path fill="none" stroke="rgb(0,0,255)" paint-order="fill stroke markers" d=" M 338.332738110422 311.667261889578 C 331.889087296526 305.2236110756821 331.889087296526 294.7763889243179 338.332738110422 288.332738110422 C 344.7763889243179 281.889087296526 355.2236110756821 281.889087296526 361.667261889578 288.332738110422 C 368.110912703474 294.7763889243179 368.110912703474 305.2236110756821 361.667261889578 311.667261889578" stroke-opacity="1" stroke-linecap="round" stroke-miterlimit="10" stroke-dasharray=""/></g><g><path fill="none" stroke="rgb(0,0,255)" paint-order="fill stroke markers" d="" stroke-opacity="1" stroke-linecap="round" stroke-miterlimit="10" stroke-dasharray=""/></g><g><path fill="none" stroke="rgb(0,0,255)" paint-order="fill stroke markers" d="" stroke-opacity="1" stroke-linecap="round" stroke-miterlimit="10" stroke-dasharray=""/></g></g></svg>