<svg version="1.1" xmlns="http://www.w3.org/2000/svg" xmlns:xlink="http://www.w3.org/1999/xlink" width="250" height="250" viewBox="0 0 250 250"><defs/><g><g><path fill="rgb(0,0,0)" stroke="none" paint-order="stroke fill markers" d=" M 47.5 50 C 47.5 48.6192881255 48.6192881255 47.5 50 47.5 C 51.3807118745 47.5 52.5 48.6192881255 52.5 50 C 52.5 51.3807118745 51.3807118745 52.5 50 52.5 C 48.6192881255 52.5 47.5 51.3807118745 47.5 50 Z" fill-opacity="1"/><path fill="rgb(0,0,0)" stroke="none" paint-order="stroke fill markers" d=" M 47.5 100 C 47.5 98.6192881255 48.6192881255 97.5 50 97.5 C 51.3807118745 97.5 52.5 98.6192881255 52.5 100 C 52.5 101.3807118745 51.3807118745 102.5 50 102.5 C 48.6192881255 102.5 47.5 101.3807118745 47.5 100 Z" fill-opacity="1"/><path fill="rgb(0,0,0)" stroke="none" paint-order="stroke fill markers" d=" M 47.5 150 C 47.5 148.6192881255 48.6192881255 147.5 50 147.5 C 51.3807118745 147.5 52.5 148.6192881255 52.5 150 C 52.5 151.3807118745 51.3807118745 152.5 50 152.5 C 48.6192881255 152.5 47.5 151.3807118745 47.5 150 Z" fill-opacity="1"/><path fill="rgb(0,0,0)" stroke="none" paint-order="stroke fill markers" d=" M 47.5 200 C 47.5 198.6192881255 48.6192881255 197.5 50 197.5 C 51.3807118745 197.5 52.5 198.6192881255 52.5 200 C 52.5 201.3807118745 51.3807118745 202.5 50 202.5 C 48.6192881255 202.5 47.5 201.3807118745 47.5 200 Z" fill-opacity="1"/><path fill="rgb(0,0,0)" stroke="none" paint-order="stroke fill markers" d=" M 97.5 50 C 97.5 48.6192881255 98.6192881255 47.5 100 47.5 C 101.3807118745 47.5 102.5 48.6192881255 102.5 50 C 102.5 51.3807118745 101.3807118745 52.5 100 52.5 C 98.6192881255 52.5 97.5 51.3807118745 97.5 50 Z" fill-opacity="1"/><path fill="rgb(0,0,0)" stroke="none" paint-order="stroke fill markers" d=" M 97.5 100 C 97.5 98.6192881255 98.6192881255 97.5 100 97.5 C 101.3807118745 97.5 102.5 98.6192881255 102.5 100 C 102.5 101.3807118745 101.3807118745 102.5 100 102.5 C 98.6192881255 102.5 97.5 101.3807118745 97.5 100 Z" fill-opacity="1"/><path fill="rgb(0,0,0)" stroke="none" paint-order="stroke fill markers" d=" M 97.5 150 C 97.5 148.6192881255 98.6192881255 147.5 100 147.5 C 101.3807118745 147.5 102.5 148.6192881255 102.5 150 C 102.5 151.3807118745 101.3807118745 152.5 100 152.5 C 98.6192881255 152.5 97.5 151.3807118745 97.5 150 Z" fill-opacity="1"/><path fill="rgb(0,0,0)" stroke="none" paint-order="stroke fill markers" d=" M 97.5 200 C 97.5 198.6192881255 98.6192881255 197.5 100 197.5 C 101.3807118745 197.5 102.5 198.6192881255 102.5 200 C 102.5 201.3807118745 101.3807118745 202.5 100 202.5 C 98.6192881255 202.5 97.5 201.3807118745 97.5 200 Z" fill-opacity="1"/><path fill="rgb(0,0,0)" stroke="none" paint-order="stroke fill markers" d=" M 147.5 50 C 147.5 48.6192881255 148.6192881255 47.5 150 47.5 C 151.3807118745 47.5 152.5 48.6192881255 152.5 50 C 152.5 51.3807118745 151.3807118745 52.5 150 52.5 C 148.6192881255 52.5 147.5 51.3807118745 147.5 50 Z" fill-opacity="1"/><path fill="rgb(0,0,0)" stroke="none" paint-order="stroke fill markers" d=" M 147.5 100 C 147.5 98.6192881255 148.6192881255 97.5 150 97.5 C 151.3807118745 97.5 152.5 98.6192881255 152.5 100 C 152.5 101.3807118745 151.3807118745 102.5 150 102.5 C 148.6192881255 102.5 147.5 101.3807118745 147.5 100 Z" fill-opacity="1"/><path fill="rgb(0,0,0)" stroke="none" paint-order="stroke fill markers" d=" M 147.5 150 C 147.5 148.6192881255 148.6192881255 147.5 150 147.5 C 151.3807118745 147.5 152.5 148.6192881255 152.5 150 C 152.5 151.3807118745 151.3807118745 152.5 150 152.5 C 148.6192881255 152.5 147.5 151.3807118745 147.5 150 Z" fill-opacity="1"/><path fill="rgb(0,0,0)" stroke="none" paint-order="stroke fill markers" d=" M 147.5 200 C 147.5 198.6192881255 148.6192881255 197.5 150 197.5 C 151.3807118745 197.5 152.5 198.6192881255 152.5 200 C 152.5 201.3807118745 151.3807118745 202.5 150 202.5 C 148.6192881255 202.5 147.5 201.3807118745 147.5 200 Z" fill-opacity="1"/><path fill="rgb(0,0,0)" stroke="none" paint-order="stroke fill markers" d=" M 197.5 50 C 197.5 48.6192881255 198.6192881255 47.5 200 47.5 C 201.3807118745 47.5 202.5 48.6192881255 202.5 50 C 202.5 51.3807118745 201.3807118745 52.5 200 52.5 C 198.6192881255 52.5 197.5 51.3807118745 197.5 50 Z" fill-opacity="1"/><path fill="rgb(0,0,0)" stroke="none" paint-order="stroke fill markers" d=" M 197.5 100 C 197.5 98.6192881255 198.6192881255 97.5 200 97.5 C 201.3807118745 97.5 202.5 98.6192881255 202.5 100 C 202.5 101.3807118745 201.3807118745 102.5 200 102.5 C 198.6192881255 102.5 197.5 101.3807118745 197.5 100 Z" fill-opacity="1"/><path fill="rgb(0,0,0)" stroke="none" paint-order="stroke fill markers" d=" M 197.5 150 C 197.5 148.6192881255 198.6192881255 147.5 200 147.5 C 201.3807118745 147.5 202.5 148.6192881255 202.5 150 C 202.5 151.3807118745 201.3807118745 152.5 200 152.5 C 198.6192881255 152.5 197.5 151.3807118745 197.5 150 Z" fill-opacity="1"/><path fill="rgb(0,0,0)" stroke="none" paint-order="stroke fill markers" d=" M 197.5 200 C 197.5 198.6192881255 198.6192881255 197.5 200 197.5 C 201.3807118745 197.5 202.5 198.6192881255 202.5 200 C 202.5 201.3807118745 201.3807118745 202.5 200 202.5 C 198.6192881255 202.5 197.5 201.3807118745 197.5 200 Z" fill-opacity="1"/></g><path fill="none" stroke="rgb(0,0,255)" paint-order="fill stroke markers" d=" M 62.16726188957803 63.832738110421964 L 38.83273811042197 87.16726188957803" stroke-opacity="1" stroke-linecap="round" stroke-miterlimit="10" stroke-dasharray=""/><g><path fill="none" stroke="rgb(0,0,255)" paint-order="fill stroke markers" d=" M 38.33273811042197 61.667261889578036 C 31.88908729652601 55.22361107568208 31.88908729652601 44.77638892431793 38.332738110421964 38.33273811042197 C 44.77638892431792 31.88908729652601 55.22361107568207 31.88908729652601 61.66726188957803 38.332738110421964 C 68.11091270347399 44.77638892431792 68.11091270347399 55.22361107568207 61.667261889578036 61.66726188957803" stroke-opacity="1" stroke-linecap="round" stroke-miterlimit="10" stroke-dasharray=""/></g><g><path fill="none" stroke="rgb(0,0,255)" paint-order="fill stroke markers" d=" M 38.33273811042197 111.66726188957803 C 31.88908729652601 105.22361107568207 31.88908729652601 94.77638892431793 38.332738110421964 88.33273811042197" stroke-opacity="1" stroke-linecap="round" stroke-miterlimit="10" stroke-dasharray=""/></g><path fill="none" stroke="rgb(0,0,255)" paint-order="fill stroke markers" d=" M 38.832738110421964 113.83273811042197 L 62.167261889578036 137.16726188957804" stroke-opacity="1" stroke-linecap="round" stroke-miterlimit="10" stroke-dasharray=""/><path fill="none" stroke="rgb(0,0,255)" paint-order="fill stroke markers" d=" M 63.832738110421964 138.83273811042196 L 87.16726188957803 162.16726188957804" stroke-opacity="1" stroke-linecap="round" stroke-miterlimit="10" stroke-dasharray=""/><g><path fill="none" stroke="rgb(0,0,255)" paint-order="fill stroke markers" d=" M 111.66726188957803 161.66726188957804 C 105.22361107568207 168.11091270347399 94.77638892431793 168.11091270347399 88.33273811042197 161.66726188957804" stroke-opacity="1" stroke-linecap="round" stroke-miterlimit="10" stroke-dasharray=""/></g><path fill="none" stroke="rgb(0,0,255)" paint-order="fill stroke markers" d=" M 137.16726188957804 138.83273811042196 L 113.83273811042197 162.16726188957804" stroke-opacity="1" stroke-linecap="round" stroke-miterlimit="10" stroke-dasharray=""/><path fill="none" stroke="rgb(0,0,255)" paint-order="fill stroke markers" d=" M 113.83273811042197 138.83273811042196 L 137.16726188957804 162.16726188957804" stroke-opacity="1" stroke-linecap="round" stroke-miterlimit="10" stroke-dasharray=""/><g><path fill="none" stroke="rgb(0,0,255)" paint-order="fill stroke markers" d=" M 88.33273811042196 138.33273811042196 C 94.77638892431793 131.88908729652601 105.22361107568207 131.88908729652601 111.66726188957803 138.33273811042196" stroke-opacity="1" stroke-linecap="round" stroke-miterlimit="10" stroke-dasharray=""/></g><path fill="none" stroke="rgb(0,0,255)" paint-order="fill stroke markers" d=" M 87.16726188957803 138.83273811042196 L 63.83273811042197 162.16726188957804" stroke-opacity="1" stroke-linecap="round" stroke-miterlimit="10" stroke-dasharray=""/><g><path fill="none" stroke="rgb(0,0,255)" paint-order="fill stroke markers" d=" M 61.667261889578036 161.66726188957804 C 55.22361107568208 168.11091270347399 44.77638892431793 168.11091270347399 38.33273811042197 161.66726188957804 C 31.88908729652601 155.22361107568207 31.88908729652601 144.77638892431793 38.332738110421964 138.33273811042196" stroke-opacity="1" stroke-linecap="round" stroke-miterlimit="10" stroke-dasharray=""/></g><path fill="none" stroke="rgb(0,0,255)" paint-order="fill stroke markers" d=" M 62.16726188957803 113.83273811042197 L 38.83273811042197 137.16726188957804" stroke-opacity="1" stroke-linecap="round" stroke-miterlimit="10" stroke-dasharray=""/><g><path fill="none" stroke="rgb(0,0,255)" paint-order="fill stroke markers" d=" M 61.66726188957803 88.33273811042197 C 68.11091270347399 94.77638892431793 68.11091270347399 105.22361107568207 61.667261889578036 111.66726188957803" stroke-opacity="1" stroke-linecap="round" stroke-miterlimit="10" stroke-dasharray=""/></g><path fill="none" stroke="rgb(0,0,255)" paint-order="fill stroke markers" d=" M 38.832738110421964 63.83273811042197 L 62.167261889578036 87.16726188957803" stroke-opacity="1" stroke-linecap="round" stroke-miterlimit="10" stroke-dasharray=""/><path fill="none" stroke="rgb(0,0,255)" paint-order="fill stroke markers" d=" M 112.16726188957803 63.832738110421964 L 88.83273811042197 87.16726188957803" stroke-opacity="1" stroke-linecap="round" stroke-miterlimit="10" stroke-dasharray=""/><g><path fill="none" stroke="rgb(0,0,255)" paint-order="fill stroke markers" d=" M 88.33273811042197 61.667261889578036 C 81.88908729652601 55.22361107568208 81.88908729652601 44.77638892431793 88.33273811042197 38.33273811042197 C 94.77638892431793 31.88908729652601 105.22361107568207 31.88908729652601 111.66726188957803 38.332738110421964 C 118.11091270347399 44.77638892431792 118.11091270347399 55.22361107568207 111.66726188957804 61.66726188957803" stroke-opacity="1" stroke-linecap="round" stroke-miterlimit="10" stroke-dasharray=""/></g><g><path fill="none" stroke="rgb(0,0,255)" paint-order="fill stroke markers" d=" M 111.66726188957803 111.66726188957803 C 105.22361107568207 118.11091270347399 94.77638892431793 118.11091270347399 88.33273811042197 111.66726188957803 C 81.88908729652601 105.22361107568207 81.88908729652601 94.77638892431793 88.33273811042196 88.33273811042197" stroke-opacity="1" stroke-linecap="round" stroke-miterlimit="10" stroke-dasharray=""/></g><path fill="none" stroke="rgb(0,0,255)" paint-order="fill stroke markers" d=" M 137.16726188957804 88.83273811042197 L 113.83273811042197 112.16726188957803" stroke-opacity="1" stroke-linecap="round" stroke-miterlimit="10" stroke-dasharray=""/><path fill="none" stroke="rgb(0,0,255)" paint-order="fill stroke markers" d=" M 162.16726188957804 63.832738110421964 L 138.83273811042196 87.16726188957803" stroke-opacity="1" stroke-linecap="round" stroke-miterlimit="10" stroke-dasharray=""/><path fill="none" stroke="rgb(0,0,255)" paint-order="fill stroke markers" d=" M 187.16726188957804 38.832738110421964 L 163.83273811042196 62.167261889578036" stroke-opacity="1" stroke-linecap="round" stroke-miterlimit="10" stroke-dasharray=""/><g><path fill="none" stroke="rgb(0,0,255)" paint-order="fill stroke markers" d=" M 188.33273811042196 38.33273811042197 C 194.77638892431793 31.88908729652601 205.22361107568207 31.88908729652601 211.66726188957804 38.332738110421964 C 218.11091270347399 44.77638892431792 218.11091270347399 55.22361107568207 211.66726188957804 61.66726188957803" stroke-opacity="1" stroke-linecap="round" stroke-miterlimit="10" stroke-dasharray=""/></g><path fill="none" stroke="rgb(0,0,255)" paint-order="fill stroke markers" d=" M 212.16726188957804 63.832738110421964 L 188.83273811042196 87.16726188957803" stroke-opacity="1" stroke-linecap="round" stroke-miterlimit="10" stroke-dasharray=""/><g><path fill="none" stroke="rgb(0,0,255)" paint-order="fill stroke markers" d=" M 188.33273811042196 111.66726188957803 C 181.88908729652601 105.22361107568207 181.88908729652601 94.77638892431793 188.33273811042196 88.33273811042197" stroke-opacity="1" stroke-linecap="round" stroke-miterlimit="10" stroke-dasharray=""/></g><path fill="none" stroke="rgb(0,0,255)" paint-order="fill stroke markers" d=" M 188.83273811042196 113.83273811042197 L 212.16726188957804 137.16726188957804" stroke-opacity="1" stroke-linecap="round" stroke-miterlimit="10" stroke-dasharray=""/><g><path fill="none" stroke="rgb(0,0,255)" paint-order="fill stroke markers" d=" M 211.66726188957804 138.33273811042196 C 218.11091270347399 144.77638892431793 218.11091270347399 155.22361107568207 211.66726188957804 161.66726188957804" stroke-opacity="1" stroke-linecap="round" stroke-miterlimit="10" stroke-dasharray=""/></g><path fill="none" stroke="rgb(0,0,255)" paint-order="fill stroke markers" d=" M 212.16726188957804 163.83273811042196 L 188.83273811042196 187.16726188957804" stroke-opacity="1" stroke-linecap="round" stroke-miterlimit="10" stroke-dasharray=""/><path fill="none" stroke="rgb(0,0,255)" paint-order="fill stroke markers" d=" M 187.16726188957804 188.83273811042196 L 163.83273811042196 212.16726188957804" stroke-opacity="1" stroke-linecap="round" stroke-miterlimit="10" stroke-dasharray=""/><g><path fill="none" stroke="rgb(0,0,255)" paint-order="fill stroke markers" d=" M 161.66726188957804 211.66726188957801 C 155.22361107568207 218.11091270347399 144.77638892431793 218.11091270347399 138.33273811042199 211.66726188957804" stroke-opacity="1" stroke-linecap="round" stroke-miterlimit="10" stroke-dasharray=""/></g><path fill="none" stroke="rgb(0,0,255)" paint-order="fill stroke markers" d=" M 113.83273811042197 188.83273811042196 L 137.16726188957804 212.16726188957804" stroke-opacity="1" stroke-linecap="round" stroke-miterlimit="10" stroke-dasharray=""/><g><path fill="none" stroke="rgb(0,0,255)" paint-order="fill stroke markers" d=" M 88.33273811042196 188.33273811042196 C 94.77638892431793 181.88908729652601 105.22361107568207 181.88908729652601 111.66726188957803 188.33273811042196" stroke-opacity="1" stroke-linecap="round" stroke-miterlimit="10" stroke-dasharray=""/></g><path fill="none" stroke="rgb(0,0,255)" paint-order="fill stroke markers" d=" M 87.16726188957803 188.83273811042196 L 63.83273811042197 212.16726188957804" stroke-opacity="1" stroke-linecap="round" stroke-miterlimit="10" stroke-dasharray=""/><path fill="none" stroke="rgb(0,0,255)" paint-order="fill stroke markers" d=" M 63.832738110421964 188.83273811042196 L 87.16726188957803 212.16726188957804" stroke-opacity="1" stroke-linecap="round" stroke-miterlimit="10" stroke-dasharray=""/><g><path fill="none" stroke="rgb(0,0,255)" paint-order="fill stroke markers" d=" M 111.66726188957803 211.66726188957804 C 105.22361107568207 218.11091270347399 94.77638892431793 218.11091270347399 88.33273811042197 211.66726188957804" stroke-opacity="1" stroke-linecap="round" stroke-miterlimit="10" stroke-dasharray=""/></g><path fill="none" stroke="rgb(0,0,255)" paint-order="fill stroke markers" d=" M 137.16726188957804 188.83273811042196 L 113.83273811042197 212.16726188957804" stroke-opacity="1" stroke-linecap="round" stroke-miterlimit="10" stroke-dasharray=""/><g><path fill="none" stroke="rgb(0,0,255)" paint-order="fill stroke markers" d=" M 138.33273811042196 188.33273811042196 C 144.77638892431793 181.88908729652601 155.22361107568207 181.88908729652601 161.66726188957804 188.33273811042196" stroke-opacity="1" stroke-linecap="round" stroke-miterlimit="10" stroke-dasharray=""/></g><path fill="none" stroke="rgb(0,0,255)" paint-order="fill stroke markers" d=" M 163.83273811042196 188.83273811042196 L 187.16726188957804 212.16726188957804" stroke-opacity="1" stroke-linecap="round" stroke-miterlimit="10" stroke-dasharray=""/><g><path fill="none" stroke="rgb(0,0,255)" paint-order="fill stroke markers" d=" M 211.66726188957804 188.33273811042196 C 218.11091270347399 194.77638892431793 218.11091270347399 205.22361107568207 211.66726188957804 211.66726188957804 C 205.22361107568207 218.11091270347399 194.77638892431793 218.11091270347399 188.33273811042196 211.66726188957804" stroke-opacity="1" stroke-linecap="round" stroke-miterlimit="10" stroke-dasharray=""/></g><path fill="none" stroke="rgb(0,0,255)" paint-order="fill stroke markers" d=" M 188.83273811042196 163.83273811042196 L 212.16726188957804 187.16726188957804" stroke-opacity="1" stroke-linecap="round" stroke-miterlimit="10" stroke-dasharray=""/><g><path fill="none" stroke="rgb(0,0,255)" paint-order="fill stroke markers" d=" M 188.33273811042196 161.66726188957804 C 181.88908729652601 155.22361107568207 181.88908729652601 144.77638892431793 188.33273811042196 138.33273811042196" stroke-opacity="1" stroke-linecap="round" stroke-miterlimit="10" stroke-dasharray=""/></g><path fill="none" stroke="rgb(0,0,255)" paint-order="fill stroke markers" d=" M 212.16726188957804 113.83273811042197 L 188.83273811042196 137.16726188957804" stroke-opacity="1" stroke-linecap="round" stroke-miterlimit="10" stroke-dasharray=""/><g><path fill="none" stroke="rgb(0,0,255)" paint-order="fill stroke markers" d=" M 211.66726188957804 88.33273811042197 C 218.11091270347399 94.77638892431793 218.11091270347399 105.22361107568207 211.66726188957804 111.66726188957803" stroke-opacity="1" stroke-linecap="round" stroke-miterlimit="10" stroke-dasharray=""/></g><path fill="none" stroke="rgb(0,0,255)" paint-order="fill stroke markers" d=" M 188.83273811042196 63.83273811042197 L 212.16726188957804 87.16726188957803" stroke-opacity="1" stroke-linecap="round" stroke-miterlimit="10" stroke-dasharray=""/><path fill="none" stroke="rgb(0,0,255)" paint-order="fill stroke markers" d=" M 163.83273811042196 38.83273811042197 L 187.16726188957804 62.16726188957803" stroke-opacity="1" stroke-linecap="round" stroke-miterlimit="10" stroke-dasharray=""/><g><path fill="none" stroke="rgb(0,0,255)" paint-order="fill stroke markers" d=" M 138.33273811042196 61.667261889578036 C 131.88908729652601 55.22361107568208 131.88908729652601 44.77638892431793 138.33273811042196 38.33273811042197 C 144.77638892431793 31.88908729652601 155.22361107568207 31.88908729652601 161.66726188957804 38.332738110421964" stroke-opacity="1" stroke-linecap="round" stroke-miterlimit="10" stroke-dasharray=""/></g><path fill="none" stroke="rgb(0,0,255)" paint-order="fill stroke markers" d=" M 138.83273811042196 63.83273811042197 L 162.16726188957804 87.16726188957803" stroke-opacity="1" stroke-linecap="round" stroke-miterlimit="10" stroke-dasharray=""/><g><path fill="none" stroke="rgb(0,0,255)" paint-order="fill stroke markers" d=" M 161.66726188957804 88.33273811042196 C 168.11091270347399 94.77638892431791 168.11091270347399 105.22361107568207 161.66726188957804 111.66726188957803 C 155.22361107568207 118.11091270347399 144.77638892431793 118.11091270347399 138.33273811042196 111.66726188957804" stroke-opacity="1" stroke-linecap="round" stroke-miterlimit="10" stroke-dasharray=""/></g><path fill="none" stroke="rgb(0,0,255)" paint-order="fill stroke markers" d=" M 113.83273811042197 88.83273811042197 L 137.16726188957804 112.16726188957803" stroke-opacity="1" stroke-linecap="round" stroke-miterlimit="10" stroke-dasharray=""/><path fill="none" stroke="rgb(0,0,255)" paint-order="fill stroke markers" d=" M 88.83273811042197 63.83273811042197 L 112.16726188957803 87.16726188957803" stroke-opacity="1" stroke-linecap="round" stroke-miterlimit="10" stroke-dasharray=""/><g><path fill="none" stroke="rgb(0,0,255)" paint-order="fill stroke markers" d=" M 138.33273811042196 138.33273811042196 C 144.77638892431793 131.88908729652601 155.22361107568207 131.88908729652601 161.66726188957804 138.33273811042196 C 168.11091270347399 144.77638892431793 168.11091270347399 155.22361107568207 161.66726188957804 161.66726188957804 C 155.22361107568207 168.11091270347399 144.77638892431793 168.11091270347399 138.33273811042199 161.66726188957804" stroke-opacity="1" stroke-linecap="round" stroke-miterlimit="10" stroke-dasharray=""/></g><g><path fill="none" stroke="rgb(0,0,255)" paint-order="fill stroke markers" d=" M 61.667261889578036 211.66726188957801 C 55.22361107568208 218.11091270347399 44.77638892431793 218.11091270347399 38.33273811042197 211.66726188957804 C 31.88908729652601 205.22361107568207 31.88908729652601 194.77638892431793 38.33273811042196 188.33273811042199 C 44.776388924317914 181.88908729652601 55.223611075682065 181.88908729652601 61.66726188957803 188.33273811042196" stroke-opacity="1" stroke-linecap="round" stroke-miterlimit="10" stroke-dasharray=""/></g></g></svg>